<?xml version="1.0" standalone="no"?>
<!DOCTYPE svg PUBLIC "-//W3C//DTD SVG 20010904//EN"
 "http://www.w3.org/TR/2001/REC-SVG-20010904/DTD/svg10.dtd">
<svg version="1.0" xmlns="http://www.w3.org/2000/svg"
 width="539.000000pt" height="550.000000pt" viewBox="0 0 539.000000 550.000000"
 preserveAspectRatio="xMidYMid meet">
<metadata>
Created by potrace 1.15, written by Peter Selinger 2001-2017
</metadata>
<g transform="translate(0.000000,550.000000) scale(0.100000,-0.100000)"
fill="#000000" stroke="none">
<path d="M2380 5384 c-831 -100 -1556 -571 -1990 -1294 -322 -537 -446 -1198
-339 -1820 117 -685 489 -1292 1045 -1706 420 -313 897 -487 1435 -524 623
-43 1253 145 1764 525 807 600 1208 1594 1045 2591 -87 538 -334 1029 -715
1423 -443 459 -997 733 -1630 806 -159 18 -458 18 -615 -1z m380 -54 c8 -15 3
-39 -26 -112 -35 -92 -36 -94 -24 -161 16 -93 62 -181 114 -218 l41 -30 30 38
c123 155 192 228 223 235 17 4 47 12 64 16 27 6 41 22 83 90 59 96 37 94 255
22 166 -55 314 -119 450 -195 148 -84 147 -81 61 -90 l-73 -7 4 -102 c5 -136
22 -167 97 -180 48 -8 56 -13 79 -52 25 -41 29 -43 87 -51 l60 -8 -3 -60 c-2
-39 2 -73 13 -98 l16 -38 -41 -51 c-51 -65 -119 -108 -169 -108 -47 0 -126
-23 -169 -50 l-33 -20 43 -81 c53 -99 112 -164 164 -178 30 -8 54 -6 119 10
l82 21 11 89 c6 49 13 93 17 98 3 5 41 -8 85 -30 86 -41 105 -46 116 -27 12
19 34 -22 34 -66 0 -72 54 -100 100 -51 34 36 46 31 65 -24 9 -27 23 -55 32
-62 13 -11 20 -8 44 19 16 18 31 32 33 32 3 0 10 -18 16 -40 13 -48 40 -68
110 -79 28 -5 64 -17 78 -28 28 -19 75 -106 87 -157 5 -25 4 -28 -12 -22 -10
4 -65 10 -123 13 l-105 6 -104 80 c-58 44 -117 87 -133 95 -16 7 -73 18 -126
22 -53 4 -135 16 -181 26 -98 21 -173 14 -311 -30 -81 -26 -87 -30 -141 -94
-44 -53 -66 -71 -105 -84 -61 -21 -126 -75 -159 -133 -23 -38 -25 -49 -19
-113 6 -61 2 -88 -31 -218 -34 -130 -39 -164 -39 -268 l-1 -119 90 -84 c118
-110 195 -169 275 -207 l65 -31 180 0 c192 0 180 2 251 -50 9 -6 25 -5 48 3
44 16 52 11 66 -36 16 -59 12 -86 -30 -212 -22 -65 -40 -134 -40 -152 0 -18
14 -71 30 -118 53 -149 39 -219 -68 -335 -65 -70 -123 -184 -124 -243 0 -23 8
-83 17 -135 l18 -94 -48 -104 c-134 -294 -138 -306 -106 -336 20 -19 20 -19
-87 -85 -449 -277 -962 -415 -1477 -395 -404 16 -745 105 -1104 287 -963 489
-1531 1535 -1416 2612 37 349 147 698 315 1002 57 102 88 126 76 59 -3 -21 -9
-72 -12 -113 -6 -71 -5 -77 23 -118 32 -47 96 -97 163 -127 l42 -19 -5 -55
c-6 -54 -6 -55 37 -92 33 -29 46 -50 55 -86 30 -121 28 -118 95 -167 66 -48
76 -65 76 -127 0 -57 -25 -115 -89 -204 -108 -151 -115 -168 -115 -264 0 -119
18 -245 40 -278 47 -72 168 -212 213 -247 l51 -38 -6 -67 c-7 -69 5 -109 44
-154 13 -15 14 -30 3 -120 -7 -56 -19 -127 -27 -158 -17 -69 -18 -125 -3 -168
9 -24 8 -54 -1 -119 -22 -158 -24 -214 -5 -257 9 -22 25 -92 34 -157 14 -96
23 -126 52 -174 48 -81 165 -199 223 -225 26 -11 50 -19 52 -16 2 2 -7 65 -21
139 -14 75 -26 146 -27 159 -1 13 16 64 38 112 47 106 103 165 249 264 92 63
105 75 162 163 34 52 88 129 120 171 53 70 62 78 107 88 27 6 76 23 108 37 50
23 65 38 116 108 72 99 72 99 118 222 31 84 43 105 83 140 62 55 94 122 99
205 l4 65 -54 50 c-64 58 -165 110 -260 133 -63 15 -68 18 -85 56 -10 22 -35
61 -56 87 -20 26 -46 72 -58 103 -45 120 -147 222 -292 291 -47 22 -99 56
-128 85 -28 27 -69 55 -96 65 -108 39 -205 84 -234 108 -36 31 -82 34 -105 7
-78 -93 -105 -109 -167 -97 -46 9 -124 61 -148 99 -16 27 -19 48 -18 136 2
102 1 104 -26 125 -37 30 -28 61 28 101 23 17 46 43 51 58 9 23 6 31 -15 52
-22 22 -28 24 -59 15 -59 -17 -89 -12 -121 19 -25 25 -29 37 -29 83 0 81 16
122 69 180 61 66 137 112 219 133 70 18 122 14 187 -15 56 -24 74 -48 91 -120
17 -74 37 -115 61 -124 28 -11 38 14 57 146 21 139 23 148 40 148 23 0 181 82
231 119 37 28 55 36 70 30 26 -9 59 -2 115 26 79 39 178 65 252 65 100 0 150
15 170 51 9 16 28 34 42 41 22 9 31 7 64 -15 50 -35 104 -36 137 -3 25 25 55
111 55 158 0 25 -2 27 -30 22 -38 -8 -40 11 -5 66 37 59 33 76 -36 142 -69 67
-79 67 -141 12 -45 -40 -80 -51 -116 -34 -23 10 -28 9 -37 -5 -37 -65 -124
-125 -179 -125 -47 0 -65 51 -50 141 5 28 15 41 50 63 24 15 69 48 101 72 64
50 75 52 103 24 22 -22 45 -25 82 -11 13 4 48 11 79 15 54 7 56 6 102 -34 l46
-41 83 67 c46 38 84 69 86 70 2 1 -10 29 -27 62 -16 33 -27 62 -24 66 4 3 28
6 54 6 38 0 51 -4 59 -20z"/>
<path d="M3158 4969 c-67 -26 -78 -34 -78 -55 0 -31 35 -53 111 -71 65 -15 79
-12 79 16 0 10 9 30 20 44 26 32 25 51 -2 77 -28 26 -37 25 -130 -11z"/>
<path d="M3860 4673 c-24 -9 -29 -24 -18 -56 10 -27 8 -32 -26 -61 l-36 -31
21 -32 20 -32 35 17 c42 20 49 13 58 -58 8 -57 36 -90 78 -90 41 0 118 45 118
69 0 35 -61 140 -101 173 -21 18 -59 50 -83 71 -24 20 -45 37 -47 36 -2 0 -11
-3 -19 -6z"/>
<path d="M1185 3889 c-28 -14 -49 -49 -37 -61 12 -12 233 -48 299 -48 102 0
75 43 -34 53 -53 5 -76 13 -109 37 -43 31 -82 37 -119 19z"/>
</g>
</svg>
